<?xml version="1.0" encoding="UTF-8"?>
<svg xmlns="http://www.w3.org/2000/svg" xmlns:xlink="http://www.w3.org/1999/xlink" width="100pt" height="100pt" viewBox="0 0 100 100" version="1.1">
<g id="surface1">
<path style="fill-rule:evenodd;fill:rgb(0%,0%,0%);fill-opacity:1;stroke-width:1.5;stroke-linecap:round;stroke-linejoin:round;stroke:rgb(0%,0%,0%);stroke-opacity:1;stroke-miterlimit:4;" d="M 22.000781 10.000195 C 32.500195 11.000391 38.499609 18 38.000391 39.000586 L 14.999414 39.000586 C 14.999414 30.000586 24.999609 32.500195 22.999219 18 " transform="matrix(2.222222,0,0,2.222222,0,0)"/>
<path style="fill-rule:evenodd;fill:rgb(0%,0%,0%);fill-opacity:1;stroke-width:1.5;stroke-linecap:round;stroke-linejoin:round;stroke:rgb(0%,0%,0%);stroke-opacity:1;stroke-miterlimit:4;" d="M 23.999414 18 C 24.380859 20.90918 18.45 25.370508 15.999609 27 C 13.000781 29.000391 13.180078 31.340039 11.000391 31.000781 C 9.958008 30.060352 12.410156 27.959766 11.000391 28.000195 C 10.000195 28.000195 11.190234 29.230664 10.000195 30.000586 C 9 30.000586 5.997656 31.000781 5.999414 25.999805 C 5.999414 23.999414 12.000586 13.999219 12.000586 13.999219 C 12.000586 13.999219 13.890234 12.100781 13.999219 10.499414 C 13.269727 9.50625 13.5 8.500781 13.5 7.500586 C 14.500195 6.500391 16.500586 10.000195 16.500586 10.000195 L 18.499219 10.000195 C 18.499219 10.000195 19.279687 8.008594 21.000586 6.999609 C 22.000781 6.999609 22.000781 10.000195 22.000781 10.000195 " transform="matrix(2.222222,0,0,2.222222,0,0)"/>
<path style="fill-rule:evenodd;fill:rgb(100%,100%,100%);fill-opacity:1;stroke-width:1.5;stroke-linecap:round;stroke-linejoin:round;stroke:rgb(100%,100%,100%);stroke-opacity:1;stroke-miterlimit:4;" d="M 9.499219 25.500586 C 9.499219 25.776562 9.275977 25.999805 9 25.999805 C 8.724023 25.999805 8.500781 25.776562 8.500781 25.500586 C 8.500781 25.224609 8.724023 24.999609 9 24.999609 C 9.275977 24.999609 9.499219 25.224609 9.499219 25.500586 Z M 9.499219 25.500586 " transform="matrix(2.222222,0,0,2.222222,0,0)"/>
<path style="fill-rule:evenodd;fill:rgb(100%,100%,100%);fill-opacity:1;stroke-width:1.5;stroke-linecap:round;stroke-linejoin:round;stroke:rgb(100%,100%,100%);stroke-opacity:1;stroke-miterlimit:4;" d="M 14.999668 15.500191 C 15.00053 16.327855 14.775464 16.999759 14.499869 17.000554 C 14.223395 16.999826 14.0004 16.328833 14.00106 15.50029 C 13.99932 14.671104 14.224386 13.9992 14.50086 13.999927 C 14.776455 13.999133 15.000329 14.671649 14.999668 15.500191 Z M 14.999668 15.500191 " transform="matrix(1.924444,1.111111,-1.111111,1.924444,21.54,-11.495556)"/>
<path style=" stroke:none;fill-rule:evenodd;fill:rgb(100%,100%,100%);fill-opacity:1;" d="M 54.554688 23.109375 L 53.554688 26.332031 L 54.667969 26.667969 C 61.667969 28.890625 67.222656 32.199219 72.222656 41.667969 C 77.222656 51.132812 79.445312 64.578125 78.332031 86.667969 L 78.222656 87.777344 L 83.222656 87.777344 L 83.332031 86.667969 C 84.445312 64.3125 81.378906 49.222656 76.109375 39.246094 C 70.84375 29.265625 63.246094 24.488281 55.6875 23.332031 Z M 54.554688 23.109375 "/>
</g>
</svg>
