<?xml version="1.0" encoding="UTF-8"?>
<svg xmlns="http://www.w3.org/2000/svg" xmlns:xlink="http://www.w3.org/1999/xlink" width="100pt" height="100pt" viewBox="0 0 100 100" version="1.1">
<g id="surface1">
<path style="fill-rule:nonzero;fill:rgb(0%,0%,0%);fill-opacity:1;stroke-width:1.5;stroke-linecap:round;stroke-linejoin:miter;stroke:rgb(0%,0%,0%);stroke-opacity:1;stroke-miterlimit:4;" d="M 22.000781 39.499805 C 24.208594 39.499805 25.999805 37.708594 25.999805 35.500781 C 25.999805 34.614844 25.70625 33.786914 25.219336 33.124219 C 27.170508 32.002734 28.499414 29.910937 28.499414 27.499219 C 28.499414 25.46543 27.557227 23.660156 26.092969 22.468359 C 29.093555 21.410156 33.500391 16.922461 33.500391 9 L 10.499414 9 C 10.499414 16.922461 14.90625 21.410156 17.906836 22.468359 C 16.442578 23.660156 15.500391 25.46543 15.500391 27.499219 C 15.500391 29.910937 16.829297 32.002734 18.780469 33.124219 C 18.293555 33.786914 18 34.614844 18 35.500781 C 18 37.708594 19.791211 39.499805 22.000781 39.499805 Z M 22.000781 39.499805 " transform="matrix(2.222222,0,0,2.222222,0,0)"/>
</g>
</svg>
