<?xml version="1.0" encoding="UTF-8"?>
<svg xmlns="http://www.w3.org/2000/svg" xmlns:xlink="http://www.w3.org/1999/xlink" width="100pt" height="100pt" viewBox="0 0 100 100" version="1.1">
<g id="surface1">
<path style=" stroke:none;fill-rule:evenodd;fill:rgb(0%,0%,0%);fill-opacity:1;" d="M 19.445312 26.667969 C 19.445312 30.042969 16.707031 32.777344 13.332031 32.777344 C 9.957031 32.777344 7.222656 30.042969 7.222656 26.667969 C 7.222656 23.292969 9.957031 20.554688 13.332031 20.554688 C 16.707031 20.554688 19.445312 23.292969 19.445312 26.667969 Z M 19.445312 26.667969 "/>
<path style=" stroke:none;fill-rule:evenodd;fill:rgb(0%,0%,0%);fill-opacity:1;" d="M 37.222656 20 C 37.222656 23.375 34.484375 26.109375 31.109375 26.109375 C 27.734375 26.109375 25 23.375 25 20 C 25 16.625 27.734375 13.890625 31.109375 13.890625 C 34.484375 13.890625 37.222656 16.625 37.222656 20 Z M 37.222656 20 "/>
<path style=" stroke:none;fill-rule:evenodd;fill:rgb(0%,0%,0%);fill-opacity:1;" d="M 56.109375 17.777344 C 56.109375 21.152344 53.375 23.890625 50 23.890625 C 46.625 23.890625 43.890625 21.152344 43.890625 17.777344 C 43.890625 14.402344 46.625 11.667969 50 11.667969 C 53.375 11.667969 56.109375 14.402344 56.109375 17.777344 Z M 56.109375 17.777344 "/>
<path style=" stroke:none;fill-rule:evenodd;fill:rgb(0%,0%,0%);fill-opacity:1;" d="M 75 20 C 75 23.375 72.265625 26.109375 68.890625 26.109375 C 65.515625 26.109375 62.777344 23.375 62.777344 20 C 62.777344 16.625 65.515625 13.890625 68.890625 13.890625 C 72.265625 13.890625 75 16.625 75 20 Z M 75 20 "/>
<path style=" stroke:none;fill-rule:evenodd;fill:rgb(0%,0%,0%);fill-opacity:1;" d="M 92.777344 26.667969 C 92.777344 30.042969 90.042969 32.777344 86.667969 32.777344 C 83.292969 32.777344 80.554688 30.042969 80.554688 26.667969 C 80.554688 23.292969 83.292969 20.554688 86.667969 20.554688 C 90.042969 20.554688 92.777344 23.292969 92.777344 26.667969 Z M 92.777344 26.667969 "/>
<path style="fill-rule:evenodd;fill:rgb(0%,0%,0%);fill-opacity:1;stroke-width:1.5;stroke-linecap:butt;stroke-linejoin:round;stroke:rgb(0%,0%,0%);stroke-opacity:1;stroke-miterlimit:4;" d="M 9 25.999805 C 17.500781 24.500391 30.000586 24.500391 36 25.999805 L 38.499609 13.5 L 31.000781 24.999609 L 30.700195 10.900195 L 25.500586 24.500391 L 22.5 10.000195 L 19.499414 24.500391 L 14.299805 10.900195 L 13.999219 24.999609 L 6.500391 13.5 Z M 9 25.999805 " transform="matrix(2.222222,0,0,2.222222,0,0)"/>
<path style="fill-rule:evenodd;fill:rgb(0%,0%,0%);fill-opacity:1;stroke-width:1.5;stroke-linecap:butt;stroke-linejoin:round;stroke:rgb(0%,0%,0%);stroke-opacity:1;stroke-miterlimit:4;" d="M 9 25.999805 C 9 28.000195 10.499414 28.000195 11.499609 30.000586 C 12.499805 31.5 12.499805 31.000781 12.000586 33.500391 C 10.499414 34.500586 10.499414 36 10.499414 36 C 9 37.499414 11.000391 38.499609 11.000391 38.499609 C 17.500781 39.499805 27.499219 39.499805 33.999609 38.499609 C 33.999609 38.499609 35.500781 37.499414 33.999609 36 C 33.999609 36 34.500586 34.500586 32.999414 33.500391 C 32.500195 31.000781 32.500195 31.5 33.500391 30.000586 C 34.500586 28.000195 36 28.000195 36 25.999805 C 27.499219 24.500391 17.500781 24.500391 9 25.999805 Z M 9 25.999805 " transform="matrix(2.222222,0,0,2.222222,0,0)"/>
<path style="fill:none;stroke-width:1.5;stroke-linecap:butt;stroke-linejoin:round;stroke:rgb(0%,0%,0%);stroke-opacity:1;stroke-miterlimit:4;" d="M 11.000391 38.499609 C 18.448242 41.090625 26.551758 41.090625 33.999609 38.499609 " transform="matrix(2.222222,0,0,2.222222,0,0)"/>
<path style="fill:none;stroke-width:1.5;stroke-linecap:round;stroke-linejoin:round;stroke:rgb(100%,100%,100%);stroke-opacity:1;stroke-miterlimit:4;" d="M 11.000391 29.000391 C 18.448242 26.409375 26.551758 26.409375 33.999609 29.000391 " transform="matrix(2.222222,0,0,2.222222,0,0)"/>
<path style="fill:none;stroke-width:1.5;stroke-linecap:round;stroke-linejoin:round;stroke:rgb(100%,100%,100%);stroke-opacity:1;stroke-miterlimit:4;" d="M 12.499805 31.5 L 32.500195 31.5 " transform="matrix(2.222222,0,0,2.222222,0,0)"/>
<path style="fill:none;stroke-width:1.5;stroke-linecap:round;stroke-linejoin:round;stroke:rgb(100%,100%,100%);stroke-opacity:1;stroke-miterlimit:4;" d="M 11.499609 34.500586 C 18.643359 36.864844 26.356641 36.864844 33.500391 34.500586 " transform="matrix(2.222222,0,0,2.222222,0,0)"/>
<path style="fill:none;stroke-width:1.5;stroke-linecap:round;stroke-linejoin:round;stroke:rgb(100%,100%,100%);stroke-opacity:1;stroke-miterlimit:4;" d="M 10.499414 37.499414 C 18.249609 40.327734 26.750391 40.327734 34.500586 37.499414 " transform="matrix(2.222222,0,0,2.222222,0,0)"/>
</g>
</svg>
