<?xml version="1.0" encoding="UTF-8"?>
<svg xmlns="http://www.w3.org/2000/svg" xmlns:xlink="http://www.w3.org/1999/xlink" width="100pt" height="100pt" viewBox="0 0 100 100" version="1.1">
<g id="surface1">
<path style="fill-rule:nonzero;fill:rgb(0%,0%,0%);fill-opacity:1;stroke-width:1;stroke-linecap:round;stroke-linejoin:round;stroke:rgb(0%,0%,0%);stroke-opacity:1;stroke-miterlimit:4;" d="M 8.999805 13.000586 C 8.999805 14.104492 8.105078 14.999219 6.999414 14.999219 C 5.895508 14.999219 5.000781 14.104492 5.000781 13.000586 C 5.000781 11.894922 5.895508 11.000195 6.999414 11.000195 C 8.105078 11.000195 8.999805 11.894922 8.999805 13.000586 Z M 8.999805 13.000586 " transform="matrix(2.222222,0,0,-2.222222,-2.222222,102.222222)"/>
<path style="fill-rule:nonzero;fill:rgb(0%,0%,0%);fill-opacity:1;stroke-width:1;stroke-linecap:round;stroke-linejoin:round;stroke:rgb(0%,0%,0%);stroke-opacity:1;stroke-miterlimit:4;" d="M 9.000391 13.000586 C 9.000391 14.104492 8.103906 14.999219 7 14.999219 C 5.896094 14.999219 4.999609 14.104492 4.999609 13.000586 C 4.999609 11.894922 5.896094 11.000195 7 11.000195 C 8.103906 11.000195 9.000391 11.894922 9.000391 13.000586 Z M 9.000391 13.000586 " transform="matrix(2.222222,0,0,-2.222222,34.444444,112.222222)"/>
<path style="fill-rule:nonzero;fill:rgb(0%,0%,0%);fill-opacity:1;stroke-width:1;stroke-linecap:round;stroke-linejoin:round;stroke:rgb(0%,0%,0%);stroke-opacity:1;stroke-miterlimit:4;" d="M 8.999219 13.000586 C 8.999219 14.104492 8.104492 14.999219 7.000586 14.999219 C 5.894922 14.999219 5.000195 14.104492 5.000195 13.000586 C 5.000195 11.894922 5.894922 11.000195 7.000586 11.000195 C 8.104492 11.000195 8.999219 11.894922 8.999219 13.000586 Z M 8.999219 13.000586 " transform="matrix(2.222222,0,0,-2.222222,71.111111,102.222222)"/>
<path style="fill-rule:nonzero;fill:rgb(0%,0%,0%);fill-opacity:1;stroke-width:1;stroke-linecap:round;stroke-linejoin:round;stroke:rgb(0%,0%,0%);stroke-opacity:1;stroke-miterlimit:4;" d="M 8.999609 13.000781 C 8.999609 14.104687 8.104883 14.999414 6.999219 14.999414 C 5.895312 14.999414 5.000586 14.104687 5.000586 13.000781 C 5.000586 11.895117 5.895312 11.000391 6.999219 11.000391 C 8.104883 11.000391 8.999609 11.895117 8.999609 13.000781 Z M 8.999609 13.000781 " transform="matrix(2.222222,0,0,-2.222222,15.555556,110)"/>
<path style="fill-rule:nonzero;fill:rgb(0%,0%,0%);fill-opacity:1;stroke-width:1;stroke-linecap:round;stroke-linejoin:round;stroke:rgb(0%,0%,0%);stroke-opacity:1;stroke-miterlimit:4;" d="M 8.999414 13 C 8.999414 14.103906 8.104687 15.000391 7.000781 15.000391 C 5.895117 15.000391 5.000391 14.103906 5.000391 13 C 5.000391 11.896094 5.895117 10.999609 7.000781 10.999609 C 8.104687 10.999609 8.999414 11.896094 8.999414 13 Z M 8.999414 13 " transform="matrix(2.222222,0,0,-2.222222,53.333333,108.888889)"/>
<path style="fill-rule:evenodd;fill:rgb(0%,0%,0%);fill-opacity:1;stroke-width:1;stroke-linecap:butt;stroke-linejoin:round;stroke:rgb(0%,0%,0%);stroke-opacity:1;stroke-miterlimit:4;" d="M 9 19.000195 C 17.500781 20.499609 30.000586 20.499609 36 19.000195 L 38.000391 31.000781 L 31.000781 20.000391 L 31.000781 33.999609 L 25.500586 20.499609 L 22.5 35.500781 L 19.499414 20.499609 L 13.999219 34.500586 L 13.999219 20.000391 L 6.999609 31.000781 Z M 9 19.000195 " transform="matrix(2.222222,0,0,2.222222,0,0)"/>
<path style="fill-rule:evenodd;fill:rgb(0%,0%,0%);fill-opacity:1;stroke-width:1;stroke-linecap:butt;stroke-linejoin:round;stroke:rgb(0%,0%,0%);stroke-opacity:1;stroke-miterlimit:4;" d="M 9 19.000195 C 9 16.999805 10.499414 16.999805 11.499609 14.999414 C 12.499805 13.5 12.499805 13.999219 12.000586 11.499609 C 10.499414 10.499414 10.499414 9 10.499414 9 C 9 7.500586 11.000391 6.500391 11.000391 6.500391 C 17.500781 5.500195 27.499219 5.500195 33.999609 6.500391 C 33.999609 6.500391 35.500781 7.500586 33.999609 9 C 33.999609 9 34.500586 10.499414 32.999414 11.499609 C 32.500195 13.999219 32.500195 13.5 33.500391 14.999414 C 34.500586 16.999805 36 16.999805 36 19.000195 C 27.499219 20.499609 17.500781 20.499609 9 19.000195 Z M 9 19.000195 " transform="matrix(2.222222,0,0,2.222222,0,0)"/>
<path style="fill:none;stroke-width:1;stroke-linecap:round;stroke-linejoin:round;stroke:rgb(100%,100%,100%);stroke-opacity:1;stroke-miterlimit:4;" d="M 11.499609 14.999414 C 14.999414 15.999609 30.000586 15.999609 33.500391 14.999414 " transform="matrix(2.222222,0,0,2.222222,0,0)"/>
<path style="fill:none;stroke-width:1;stroke-linecap:round;stroke-linejoin:round;stroke:rgb(100%,100%,100%);stroke-opacity:1;stroke-miterlimit:4;" d="M 12.000586 11.499609 C 18 12.499805 27 12.499805 32.999414 11.499609 " transform="matrix(2.222222,0,0,2.222222,0,0)"/>
<path style="fill:none;stroke-width:1;stroke-linecap:round;stroke-linejoin:round;stroke:rgb(100%,100%,100%);stroke-opacity:1;stroke-miterlimit:4;" d="M 10.499414 9 C 15.500391 10.000195 29.000391 10.000195 33.999609 9 " transform="matrix(2.222222,0,0,2.222222,0,0)"/>
</g>
</svg>
