<?xml version="1.0" encoding="UTF-8"?>
<svg xmlns="http://www.w3.org/2000/svg" xmlns:xlink="http://www.w3.org/1999/xlink" width="100pt" height="100pt" viewBox="0 0 100 100" version="1.1">
<g id="surface1">
<path style="fill-rule:evenodd;fill:rgb(0%,0%,0%);fill-opacity:1;stroke-width:1;stroke-linecap:round;stroke-linejoin:miter;stroke:rgb(0%,0%,0%);stroke-opacity:1;stroke-miterlimit:4;" d="M 22.028906 36 C 11.529492 34.999805 5.52832 28.000195 6.029297 6.999609 L 29.028516 6.999609 C 29.028516 15.999609 19.02832 13.5 21.028711 28.000195 " transform="matrix(2.222222,0,0,2.222222,0,0)"/>
<path style="fill-rule:evenodd;fill:rgb(0%,0%,0%);fill-opacity:1;stroke-width:1;stroke-linecap:round;stroke-linejoin:round;stroke:rgb(0%,0%,0%);stroke-opacity:1;stroke-miterlimit:4;" d="M 20.028516 28.000195 C 19.645312 25.089258 25.581445 20.631445 28.02832 19.000195 C 31.028906 16.999805 30.847852 14.656641 33.029297 14.999414 C 34.069922 15.943359 31.616016 18.036914 33.029297 18 C 34.029492 18 32.841211 16.767773 34.029492 15.999609 C 35.029687 15.999609 38.032031 14.999414 38.028516 20.000391 C 38.028516 22.000781 32.029102 31.999219 32.029102 31.999219 C 32.029102 31.999219 30.142969 33.90293 30.028711 35.500781 C 30.754687 36.493945 30.529687 37.499414 30.529687 38.499609 C 29.529492 39.499805 27.529102 36 27.529102 36 L 25.528711 36 C 25.528711 36 24.746484 37.991602 23.029102 39.000586 C 22.028906 39.000586 22.028906 36 22.028906 36 " transform="matrix(2.222222,0,0,2.222222,0,0)"/>
<path style="fill-rule:nonzero;fill:rgb(0%,0%,0%);fill-opacity:1;stroke-width:1;stroke-linecap:round;stroke-linejoin:round;stroke:rgb(100%,100%,100%);stroke-opacity:1;stroke-miterlimit:4;" d="M 9.000247 23.500391 C 9.000247 23.776367 8.777005 23.999609 8.499271 23.999609 C 8.223294 23.999609 8.000052 23.776367 8.000052 23.500391 C 8.000052 23.224414 8.223294 22.999414 8.499271 22.999414 C 8.777005 22.999414 9.000247 23.224414 9.000247 23.500391 Z M 9.000247 23.500391 " transform="matrix(-2.222222,0,0,-2.222222,96.731018,97.777778)"/>
<path style="fill-rule:nonzero;fill:rgb(0%,0%,0%);fill-opacity:1;stroke-width:1;stroke-linecap:round;stroke-linejoin:round;stroke:rgb(100%,100%,100%);stroke-opacity:1;stroke-miterlimit:4;" d="M 15.000459 15.499517 C 14.999787 16.328042 14.77624 16.99905 14.500651 16.999841 C 14.224183 16.99911 13.999679 16.329007 14.00035 15.500482 C 14.001021 14.671957 14.22369 13.999427 14.500158 14.000158 C 14.775746 13.999367 14.999608 14.671871 15.000459 15.499517 Z M 15.000459 15.499517 " transform="matrix(-1.9245,-1.111111,1.111111,-1.9245,76.302947,113.718653)"/>
<path style=" stroke:none;fill-rule:evenodd;fill:rgb(100%,100%,100%);fill-opacity:1;" d="M 43.285156 79.109375 L 43.953125 76.667969 L 42.730469 76.445312 C 35.839844 75.382812 28.679688 71.480469 23.675781 62.015625 C 18.671875 52.546875 17.183594 37.652344 18.285156 15.554688 L 18.398438 14.445312 L 14.507812 14.445312 L 14.507812 15.554688 C 13.390625 37.902344 16.457031 53.007812 21.730469 62.984375 C 27.003906 72.964844 34.59375 77.726562 42.148438 78.890625 Z M 43.285156 79.109375 "/>
</g>
</svg>
