<?xml version="1.0" encoding="UTF-8"?>
<svg xmlns="http://www.w3.org/2000/svg" xmlns:xlink="http://www.w3.org/1999/xlink" width="100pt" height="100pt" viewBox="0 0 100 100" version="1.1">
<g id="surface1">
<path style="fill-rule:evenodd;fill:rgb(100%,100%,100%);fill-opacity:1;stroke-width:1.5;stroke-linecap:butt;stroke-linejoin:round;stroke:rgb(0%,0%,0%);stroke-opacity:1;stroke-miterlimit:4;" d="M 9 9 C 12.385547 9.97207 19.114453 8.569336 22.5 11.000391 C 25.885547 8.569336 32.614453 9.97207 36 9 C 36 9 37.645312 8.458594 39.000586 6.999609 C 38.32207 6.027539 37.353516 6.013477 36 6.500391 C 32.614453 7.472461 25.885547 6.041602 22.5 7.500586 C 19.114453 6.041602 12.385547 7.472461 9 6.500391 C 7.646484 6.013477 6.67793 6.027539 5.999414 6.999609 C 7.354687 8.945508 9 9 9 9 Z M 9 9 " transform="matrix(2.222222,0,0,2.222222,0,0)"/>
<path style="fill-rule:evenodd;fill:rgb(100%,100%,100%);fill-opacity:1;stroke-width:1.5;stroke-linecap:butt;stroke-linejoin:round;stroke:rgb(0%,0%,0%);stroke-opacity:1;stroke-miterlimit:4;" d="M 14.999414 13.000781 C 17.500781 10.499414 27.499219 10.499414 30.000586 13.000781 C 30.499805 14.500195 30.000586 14.999414 30.000586 14.999414 C 30.000586 17.500781 27.499219 19.000195 27.499219 19.000195 C 32.999414 20.499609 33.500391 30.499805 22.5 34.500586 C 11.499609 30.499805 12.000586 20.499609 17.500781 19.000195 C 17.500781 19.000195 14.999414 17.500781 14.999414 14.999414 C 14.999414 14.999414 14.500195 14.500195 14.999414 13.000781 Z M 14.999414 13.000781 " transform="matrix(2.222222,0,0,2.222222,0,0)"/>
<path style="fill-rule:nonzero;fill:rgb(100%,100%,100%);fill-opacity:1;stroke-width:1.5;stroke-linecap:butt;stroke-linejoin:round;stroke:rgb(0%,0%,0%);stroke-opacity:1;stroke-miterlimit:4;" d="M 24.999609 9.999805 C 24.999609 11.381445 23.879883 12.499414 22.5 12.499414 C 21.120117 12.499414 20.000391 11.381445 20.000391 9.999805 C 20.000391 8.619922 21.120117 7.500195 22.5 7.500195 C 23.879883 7.500195 24.999609 8.619922 24.999609 9.999805 Z M 24.999609 9.999805 " transform="matrix(2.222222,0,0,-2.222222,0,104.444444)"/>
<path style="fill:none;stroke-width:1.5;stroke-linecap:butt;stroke-linejoin:miter;stroke:rgb(0%,0%,0%);stroke-opacity:1;stroke-miterlimit:4;" d="M 17.500781 19.000195 L 27.499219 19.000195 " transform="matrix(2.222222,0,0,2.222222,0,0)"/>
<path style="fill:none;stroke-width:1.5;stroke-linecap:butt;stroke-linejoin:miter;stroke:rgb(0%,0%,0%);stroke-opacity:1;stroke-miterlimit:4;" d="M 14.999414 14.999414 L 30.000586 14.999414 " transform="matrix(2.222222,0,0,2.222222,0,0)"/>
<path style="fill:none;stroke-width:1.5;stroke-linecap:round;stroke-linejoin:miter;stroke:rgb(0%,0%,0%);stroke-opacity:1;stroke-miterlimit:4;" d="M 22.5 29.499609 L 22.5 24.500391 " transform="matrix(2.222222,0,0,2.222222,0,0)"/>
<path style="fill:none;stroke-width:1.5;stroke-linecap:round;stroke-linejoin:miter;stroke:rgb(0%,0%,0%);stroke-opacity:1;stroke-miterlimit:4;" d="M 20.000391 27 L 24.999609 27 " transform="matrix(2.222222,0,0,2.222222,0,0)"/>
</g>
</svg>
