<?xml version="1.0" encoding="UTF-8"?>
<svg xmlns="http://www.w3.org/2000/svg" xmlns:xlink="http://www.w3.org/1999/xlink" width="100pt" height="100pt" viewBox="0 0 100 100" version="1.1">
<g id="surface1">
<path style="fill-rule:evenodd;fill:rgb(100%,100%,100%);fill-opacity:1;stroke-width:1.5;stroke-linecap:butt;stroke-linejoin:round;stroke:rgb(0%,0%,0%);stroke-opacity:1;stroke-miterlimit:4;" d="M 9 36 C 12.39082 35.029687 19.10918 36.430664 22.5 33.999609 C 25.89082 36.430664 32.60918 35.029687 36 36 C 36 36 37.650586 36.539648 39.000586 38.000391 C 38.320312 38.970703 37.35 38.990039 36 38.499609 C 32.60918 37.529297 25.89082 38.960156 22.5 37.499414 C 19.10918 38.960156 12.39082 37.529297 9 38.499609 C 7.646484 38.990039 6.676172 38.970703 5.999414 38.000391 C 7.354687 36.059766 9 36 9 36 Z M 9 36 " transform="matrix(2.222222,0,0,2.222222,0,0)"/>
<path style="fill-rule:evenodd;fill:rgb(100%,100%,100%);fill-opacity:1;stroke-width:1.5;stroke-linecap:butt;stroke-linejoin:round;stroke:rgb(0%,0%,0%);stroke-opacity:1;stroke-miterlimit:4;" d="M 14.999414 31.999219 C 17.500781 34.500586 27.499219 34.500586 30.000586 31.999219 C 30.499805 30.499805 30.000586 30.000586 30.000586 30.000586 C 30.000586 27.499219 27.499219 25.999805 27.499219 25.999805 C 32.999414 24.500391 33.500391 14.500195 22.5 10.499414 C 11.499609 14.500195 12.000586 24.500391 17.500781 25.999805 C 17.500781 25.999805 14.999414 27.499219 14.999414 30.000586 C 14.999414 30.000586 14.500195 30.499805 14.999414 31.999219 Z M 14.999414 31.999219 " transform="matrix(2.222222,0,0,2.222222,0,0)"/>
<path style="fill-rule:evenodd;fill:rgb(100%,100%,100%);fill-opacity:1;stroke-width:1.5;stroke-linecap:butt;stroke-linejoin:round;stroke:rgb(0%,0%,0%);stroke-opacity:1;stroke-miterlimit:4;" d="M 24.999609 7.999805 C 24.999609 9.381445 23.879883 10.499414 22.5 10.499414 C 21.120117 10.499414 20.000391 9.381445 20.000391 7.999805 C 20.000391 6.619922 21.120117 5.500195 22.5 5.500195 C 23.879883 5.500195 24.999609 6.619922 24.999609 7.999805 Z M 24.999609 7.999805 " transform="matrix(2.222222,0,0,2.222222,0,0)"/>
<path style="fill:none;stroke-width:1.5;stroke-linecap:round;stroke-linejoin:miter;stroke:rgb(0%,0%,0%);stroke-opacity:1;stroke-miterlimit:4;" d="M 17.500781 25.999805 L 27.499219 25.999805 M 14.999414 30.000586 L 30.000586 30.000586 M 22.5 15.500391 L 22.5 20.499609 M 20.000391 18 L 24.999609 18 " transform="matrix(2.222222,0,0,2.222222,0,0)"/>
</g>
</svg>
