<?xml version="1.0" encoding="UTF-8"?>
<svg xmlns="http://www.w3.org/2000/svg" xmlns:xlink="http://www.w3.org/1999/xlink" width="100pt" height="100pt" viewBox="0 0 100 100" version="1.1">
<g id="surface1">
<path style="fill-rule:evenodd;fill:rgb(100%,100%,100%);fill-opacity:1;stroke-width:1.5;stroke-linecap:butt;stroke-linejoin:round;stroke:rgb(0%,0%,0%);stroke-opacity:1;stroke-miterlimit:4;" d="M 9 5.999414 L 36 5.999414 L 36 9 L 9 9 Z M 9 5.999414 " transform="matrix(2.222222,0,0,2.222222,0,0)"/>
<path style="fill-rule:evenodd;fill:rgb(100%,100%,100%);fill-opacity:1;stroke-width:1.5;stroke-linecap:butt;stroke-linejoin:round;stroke:rgb(0%,0%,0%);stroke-opacity:1;stroke-miterlimit:4;" d="M 12.000586 9 L 12.000586 13.000781 L 32.999414 13.000781 L 32.999414 9 Z M 12.000586 9 " transform="matrix(2.222222,0,0,2.222222,0,0)"/>
<path style="fill-rule:evenodd;fill:rgb(100%,100%,100%);fill-opacity:1;stroke-width:1.5;stroke-linecap:butt;stroke-linejoin:round;stroke:rgb(0%,0%,0%);stroke-opacity:1;stroke-miterlimit:4;" d="M 11.000391 31.000781 L 11.000391 36 L 14.999414 36 L 14.999414 33.999609 L 20.000391 33.999609 L 20.000391 36 L 24.999609 36 L 24.999609 33.999609 L 30.000586 33.999609 L 30.000586 36 L 33.999609 36 L 33.999609 31.000781 " transform="matrix(2.222222,0,0,2.222222,0,0)"/>
<path style="fill-rule:evenodd;fill:rgb(100%,100%,100%);fill-opacity:1;stroke-width:1.5;stroke-linecap:round;stroke-linejoin:round;stroke:rgb(0%,0%,0%);stroke-opacity:1;stroke-miterlimit:4;" d="M 33.999609 31.000781 L 31.000781 28.000195 L 13.999219 28.000195 L 11.000391 31.000781 " transform="matrix(2.222222,0,0,2.222222,0,0)"/>
<path style="fill-rule:evenodd;fill:rgb(100%,100%,100%);fill-opacity:1;stroke-width:1.5;stroke-linecap:butt;stroke-linejoin:miter;stroke:rgb(0%,0%,0%);stroke-opacity:1;stroke-miterlimit:4;" d="M 31.000781 28.000195 L 31.000781 15.500391 L 13.999219 15.500391 L 13.999219 28.000195 " transform="matrix(2.222222,0,0,2.222222,0,0)"/>
<path style="fill-rule:evenodd;fill:rgb(100%,100%,100%);fill-opacity:1;stroke-width:1.5;stroke-linecap:round;stroke-linejoin:round;stroke:rgb(0%,0%,0%);stroke-opacity:1;stroke-miterlimit:4;" d="M 31.000781 15.500391 L 32.500195 13.000781 L 12.499805 13.000781 L 13.999219 15.500391 " transform="matrix(2.222222,0,0,2.222222,0,0)"/>
<path style="fill:none;stroke-width:1;stroke-linecap:round;stroke-linejoin:miter;stroke:rgb(0%,0%,0%);stroke-opacity:1;stroke-miterlimit:4;" d="M 11.000391 31.000781 L 33.999609 31.000781 " transform="matrix(2.222222,0,0,2.222222,0,0)"/>
</g>
</svg>
