<?xml version="1.0" encoding="UTF-8"?>
<svg xmlns="http://www.w3.org/2000/svg" xmlns:xlink="http://www.w3.org/1999/xlink" width="100pt" height="100pt" viewBox="0 0 100 100" version="1.1">
<g id="surface1">
<path style="fill-rule:nonzero;fill:rgb(100%,100%,100%);fill-opacity:1;stroke-width:1.5;stroke-linecap:round;stroke-linejoin:miter;stroke:rgb(0%,0%,0%);stroke-opacity:1;stroke-miterlimit:4;" d="M 22.000781 9 C 19.789453 9 18 10.789453 18 13.000781 C 18 13.890234 18.290039 14.709375 18.780469 15.380859 C 16.829297 16.500586 15.500391 18.590625 15.500391 21.000586 C 15.500391 23.030859 16.44082 24.839648 17.910352 26.029687 C 14.909766 27.089648 10.499414 31.580859 10.499414 39.499805 L 33.500391 39.499805 C 33.500391 31.580859 29.090039 27.089648 26.089453 26.029687 C 27.560742 24.839648 28.499414 23.030859 28.499414 21.000586 C 28.499414 18.590625 27.170508 16.500586 25.219336 15.380859 C 25.709766 14.709375 25.999805 13.890234 25.999805 13.000781 C 25.999805 10.789453 24.210352 9 22.000781 9 Z M 22.000781 9 " transform="matrix(2.222222,0,0,2.222222,0,0)"/>
</g>
</svg>
