<?xml version="1.0" encoding="UTF-8"?>
<svg xmlns="http://www.w3.org/2000/svg" xmlns:xlink="http://www.w3.org/1999/xlink" width="100pt" height="100pt" viewBox="0 0 100 100" version="1.1">
<g id="surface1">
<path style="fill-rule:evenodd;fill:rgb(100%,100%,100%);fill-opacity:1;stroke-width:1.5;stroke-linecap:round;stroke-linejoin:round;stroke:rgb(0%,0%,0%);stroke-opacity:1;stroke-miterlimit:4;" d="M 8.999805 13.000586 C 8.999805 14.104492 8.105078 14.999219 6.999414 14.999219 C 5.895508 14.999219 5.000781 14.104492 5.000781 13.000586 C 5.000781 11.894922 5.895508 11.000195 6.999414 11.000195 C 8.105078 11.000195 8.999805 11.894922 8.999805 13.000586 Z M 8.999805 13.000586 " transform="matrix(2.222222,0,0,2.222222,-2.222222,-2.222222)"/>
<path style="fill-rule:evenodd;fill:rgb(100%,100%,100%);fill-opacity:1;stroke-width:1.5;stroke-linecap:round;stroke-linejoin:round;stroke:rgb(0%,0%,0%);stroke-opacity:1;stroke-miterlimit:4;" d="M 9.000391 13.000586 C 9.000391 14.104492 8.103906 14.999219 7 14.999219 C 5.896094 14.999219 4.999609 14.104492 4.999609 13.000586 C 4.999609 11.894922 5.896094 11.000195 7 11.000195 C 8.103906 11.000195 9.000391 11.894922 9.000391 13.000586 Z M 9.000391 13.000586 " transform="matrix(2.222222,0,0,2.222222,34.444444,-12.222222)"/>
<path style="fill-rule:evenodd;fill:rgb(100%,100%,100%);fill-opacity:1;stroke-width:1.5;stroke-linecap:round;stroke-linejoin:round;stroke:rgb(0%,0%,0%);stroke-opacity:1;stroke-miterlimit:4;" d="M 8.999219 13.000586 C 8.999219 14.104492 8.104492 14.999219 7.000586 14.999219 C 5.894922 14.999219 5.000195 14.104492 5.000195 13.000586 C 5.000195 11.894922 5.894922 11.000195 7.000586 11.000195 C 8.104492 11.000195 8.999219 11.894922 8.999219 13.000586 Z M 8.999219 13.000586 " transform="matrix(2.222222,0,0,2.222222,71.111111,-2.222222)"/>
<path style="fill-rule:evenodd;fill:rgb(100%,100%,100%);fill-opacity:1;stroke-width:1.5;stroke-linecap:round;stroke-linejoin:round;stroke:rgb(0%,0%,0%);stroke-opacity:1;stroke-miterlimit:4;" d="M 8.999609 13.000781 C 8.999609 14.104687 8.104883 14.999414 6.999219 14.999414 C 5.895312 14.999414 5.000586 14.104687 5.000586 13.000781 C 5.000586 11.895117 5.895312 11.000391 6.999219 11.000391 C 8.104883 11.000391 8.999609 11.895117 8.999609 13.000781 Z M 8.999609 13.000781 " transform="matrix(2.222222,0,0,2.222222,15.555556,-10)"/>
<path style="fill-rule:evenodd;fill:rgb(100%,100%,100%);fill-opacity:1;stroke-width:1.5;stroke-linecap:round;stroke-linejoin:round;stroke:rgb(0%,0%,0%);stroke-opacity:1;stroke-miterlimit:4;" d="M 8.999414 13 C 8.999414 14.103906 8.104687 15.000391 7.000781 15.000391 C 5.895117 15.000391 5.000391 14.103906 5.000391 13 C 5.000391 11.896094 5.895117 10.999609 7.000781 10.999609 C 8.104687 10.999609 8.999414 11.896094 8.999414 13 Z M 8.999414 13 " transform="matrix(2.222222,0,0,2.222222,53.333333,-8.888889)"/>
<path style="fill-rule:evenodd;fill:rgb(100%,100%,100%);fill-opacity:1;stroke-width:1.5;stroke-linecap:butt;stroke-linejoin:round;stroke:rgb(0%,0%,0%);stroke-opacity:1;stroke-miterlimit:4;" d="M 9 25.999805 C 17.500781 24.500391 30.000586 24.500391 36 25.999805 L 38.000391 13.999219 L 31.000781 24.999609 L 31.000781 11.000391 L 25.500586 24.500391 L 22.5 9.499219 L 19.499414 24.500391 L 13.999219 10.499414 L 13.999219 24.999609 L 6.999609 13.999219 Z M 9 25.999805 " transform="matrix(2.222222,0,0,2.222222,0,0)"/>
<path style="fill-rule:evenodd;fill:rgb(100%,100%,100%);fill-opacity:1;stroke-width:1.5;stroke-linecap:butt;stroke-linejoin:round;stroke:rgb(0%,0%,0%);stroke-opacity:1;stroke-miterlimit:4;" d="M 9 25.999805 C 9 28.000195 10.499414 28.000195 11.499609 30.000586 C 12.499805 31.5 12.499805 31.000781 12.000586 33.500391 C 10.499414 34.500586 10.499414 36 10.499414 36 C 9 37.499414 11.000391 38.499609 11.000391 38.499609 C 17.500781 39.499805 27.499219 39.499805 33.999609 38.499609 C 33.999609 38.499609 35.500781 37.499414 33.999609 36 C 33.999609 36 34.500586 34.500586 32.999414 33.500391 C 32.500195 31.000781 32.500195 31.5 33.500391 30.000586 C 34.500586 28.000195 36 28.000195 36 25.999805 C 27.499219 24.500391 17.500781 24.500391 9 25.999805 Z M 9 25.999805 " transform="matrix(2.222222,0,0,2.222222,0,0)"/>
<path style="fill:none;stroke-width:1.5;stroke-linecap:round;stroke-linejoin:round;stroke:rgb(0%,0%,0%);stroke-opacity:1;stroke-miterlimit:4;" d="M 11.499609 30.000586 C 14.999414 29.000391 30.000586 29.000391 33.500391 30.000586 " transform="matrix(2.222222,0,0,2.222222,0,0)"/>
<path style="fill:none;stroke-width:1.5;stroke-linecap:round;stroke-linejoin:round;stroke:rgb(0%,0%,0%);stroke-opacity:1;stroke-miterlimit:4;" d="M 12.000586 33.500391 C 18 32.500195 27 32.500195 32.999414 33.500391 " transform="matrix(2.222222,0,0,2.222222,0,0)"/>
</g>
</svg>
