<?xml version="1.0" encoding="UTF-8"?>
<svg xmlns="http://www.w3.org/2000/svg" xmlns:xlink="http://www.w3.org/1999/xlink" width="100pt" height="100pt" viewBox="0 0 100 100" version="1.1">
<g id="surface1">
<path style="fill:none;stroke-width:1.5;stroke-linecap:round;stroke-linejoin:miter;stroke:rgb(0%,0%,0%);stroke-opacity:1;stroke-miterlimit:4;" d="M 22.5 33.375586 L 22.5 39.000586 " transform="matrix(2.222222,0,0,2.222222,0,0)"/>
<path style="fill-rule:evenodd;fill:rgb(100%,100%,100%);fill-opacity:1;stroke-width:1.5;stroke-linecap:butt;stroke-linejoin:miter;stroke:rgb(0%,0%,0%);stroke-opacity:1;stroke-miterlimit:4;" d="M 22.5 20.000391 C 22.5 20.000391 27 27.499219 25.500586 30.499805 C 25.500586 30.499805 24.500391 32.999414 22.5 32.999414 C 20.499609 32.999414 19.499414 30.499805 19.499414 30.499805 C 18 27.499219 22.5 20.000391 22.5 20.000391 " transform="matrix(2.222222,0,0,2.222222,0,0)"/>
<path style="fill-rule:evenodd;fill:rgb(100%,100%,100%);fill-opacity:1;stroke-width:1.5;stroke-linecap:round;stroke-linejoin:round;stroke:rgb(0%,0%,0%);stroke-opacity:1;stroke-miterlimit:4;" d="M 11.499609 7.999805 C 16.999805 4.5 27 4.5 32.500195 7.999805 L 32.500195 14.999414 C 32.500195 14.999414 41.500195 19.499414 38.499609 25.500586 C 34.500586 31.999219 24.999609 29.000391 22.5 21.499805 L 22.5 18 L 22.5 21.499805 C 19.000195 29.000391 9.499219 31.999219 6.500391 25.500586 C 3.499805 19.499414 11.499609 15.500391 11.499609 15.500391 Z M 11.499609 7.999805 " transform="matrix(2.222222,0,0,2.222222,0,0)"/>
<path style="fill:none;stroke-width:1.5;stroke-linecap:round;stroke-linejoin:miter;stroke:rgb(0%,0%,0%);stroke-opacity:1;stroke-miterlimit:4;" d="M 20.000391 37.000195 L 24.999609 37.000195 " transform="matrix(2.222222,0,0,2.222222,0,0)"/>
<path style="fill:none;stroke-width:1.5;stroke-linecap:round;stroke-linejoin:miter;stroke:rgb(0%,0%,0%);stroke-opacity:1;stroke-miterlimit:4;" d="M 11.499609 15.500391 C 16.999805 18 27 18 32.500195 14.999414 " transform="matrix(2.222222,0,0,2.222222,0,0)"/>
<path style="fill:none;stroke-width:1.5;stroke-linecap:round;stroke-linejoin:round;stroke:rgb(0%,0%,0%);stroke-opacity:1;stroke-miterlimit:4;" d="M 11.499609 7.999805 C 16.999805 10.499414 27 10.499414 32.500195 7.999805 " transform="matrix(2.222222,0,0,2.222222,0,0)"/>
<path style="fill:none;stroke-width:1.5;stroke-linecap:round;stroke-linejoin:round;stroke:rgb(0%,0%,0%);stroke-opacity:1;stroke-miterlimit:4;" d="M 11.499609 11.499609 C 16.999805 13.5 27 13.5 32.500195 11.499609 " transform="matrix(2.222222,0,0,2.222222,0,0)"/>
</g>
</svg>
